<svg width="1400" height="900" viewBox="0 0 1400 900" fill="none" xmlns="http://www.w3.org/2000/svg">
  <rect width="1400" height="900" fill="#F7F8FC"/>
  <rect x="60" y="60" width="1280" height="780" rx="20" fill="white" stroke="#E2E8F0" stroke-width="2"/>
  <text x="110" y="130" fill="#172033" font-size="42" font-family="Arial, sans-serif" font-weight="700">ExCheck Preview</text>
  <text x="110" y="175" fill="#4F46E5" font-size="24" font-family="Arial, sans-serif">Review người yêu cũ + Auth Check real/fake</text>

  <rect x="110" y="230" width="590" height="560" rx="14" fill="#FFFFFF" stroke="#E2E8F0" stroke-width="2"/>
  <text x="140" y="270" fill="#172033" font-size="26" font-family="Arial, sans-serif" font-weight="600">Form Review</text>
  <rect x="140" y="300" width="530" height="54" rx="10" fill="#F8FAFC" stroke="#E2E8F0"/>
  <rect x="140" y="370" width="530" height="54" rx="10" fill="#F8FAFC" stroke="#E2E8F0"/>
  <rect x="140" y="440" width="530" height="130" rx="10" fill="#F8FAFC" stroke="#E2E8F0"/>
  <rect x="140" y="590" width="220" height="46" rx="10" fill="#4F46E5"/>

  <rect x="760" y="230" width="530" height="260" rx="14" fill="#FFFFFF" stroke="#E2E8F0" stroke-width="2"/>
  <text x="790" y="270" fill="#172033" font-size="26" font-family="Arial, sans-serif" font-weight="600">Tra cứu Auth</text>
  <rect x="790" y="300" width="470" height="54" rx="10" fill="#F8FAFC" stroke="#E2E8F0"/>
  <rect x="790" y="370" width="470" height="90" rx="10" fill="#F8FAFC" stroke="#E2E8F0"/>

  <rect x="760" y="520" width="530" height="270" rx="14" fill="#FFFFFF" stroke="#E2E8F0" stroke-width="2"/>
  <text x="790" y="560" fill="#172033" font-size="26" font-family="Arial, sans-serif" font-weight="600">Báo cáo + Upvote/Downvote</text>
  <rect x="790" y="590" width="470" height="72" rx="10" fill="#F8FAFC" stroke="#E2E8F0"/>
  <rect x="790" y="680" width="160" height="42" rx="9" fill="#FFFFFF" stroke="#4F46E5"/>
  <rect x="970" y="680" width="160" height="42" rx="9" fill="#FFFFFF" stroke="#4F46E5"/>
</svg>
